<svg
    width="24"
    height="24"
    viewBox="0 0 24 24"
    fill="#232323"
    xmlns="http://www.w3.org/2000/svg"
    >
    <g clip-path="url(#clip0)">
        <path d="M19.6303 3.36966C15.1369 -1.12369 7.86439 -1.12405 3.37064 3.36966C-1.12271 7.86306 -1.12307 15.1356 3.37064 19.6294C7.86403 24.1227 15.1366 24.1231 19.6303 19.6294C24.1237 15.136 24.124 7.86342 19.6303 3.36966ZM11.5005 21.6495C5.90373 21.6495 1.35046 17.0963 1.35046 11.4995C1.35046 5.90281 5.90373 1.34953 11.5005 1.34953C17.0972 1.34953 21.6504 5.90281 21.6504 11.4995C21.6504 17.0963 17.0972 21.6495 11.5005 21.6495Z" />
        <path d="M17.9825 10.2318C17.9825 9.1174 17.0759 8.21074 15.9615 8.21074H11.7276C12.9833 8.09543 13.9701 7.0368 13.9701 5.75149C13.9701 4.38946 12.862 3.28137 11.5 3.28137C10.138 3.28137 9.02988 4.38946 9.02988 5.75149C9.02988 7.03675 10.0167 8.09543 11.2724 8.21074H7.03849C5.92411 8.21074 5.01746 9.11735 5.01746 10.2318C5.01746 11.3462 5.92407 12.2528 7.03849 12.2528H8.58861C8.29235 12.549 6.13228 14.7088 5.83005 15.011C5.04207 15.799 5.04207 17.0812 5.83005 17.8693C6.61789 18.6571 7.89996 18.6572 8.68789 17.8693L11.5 15.0572L14.3121 17.8693C15.1 18.6572 16.382 18.6572 17.17 17.8693C17.958 17.0812 17.958 15.799 17.1699 15.0109C16.8677 14.7087 14.7078 12.5491 14.4114 12.2528H15.9615C17.0759 12.2528 17.9825 11.3462 17.9825 10.2318ZM10.3773 5.75154C10.3773 5.13242 10.8809 4.62876 11.5 4.62876C12.1192 4.62876 12.6228 5.13242 12.6228 5.75154C12.6228 6.37065 12.1192 6.87431 11.5 6.87431C10.8809 6.87431 10.3773 6.37065 10.3773 5.75154ZM12.3089 12.0553C13.0554 12.8024 12.5945 12.3414 16.2172 15.9637C16.4799 16.2264 16.4799 16.6539 16.2172 16.9166C15.9546 17.1791 15.5274 17.1791 15.2648 16.9166L11.9763 13.6281C11.7135 13.3653 11.2867 13.365 11.0236 13.6281L7.73523 16.9166C7.47262 17.1791 7.04536 17.1791 6.7828 16.9166C6.52009 16.6539 6.52009 16.2264 6.78275 15.9637C10.4155 12.3315 9.9413 12.8058 10.6911 12.0553C11.1136 11.6325 10.8143 10.9054 10.2146 10.9054H7.03849C6.66703 10.9054 6.3648 10.6032 6.3648 10.2318C6.3648 9.86032 6.66699 9.55808 7.03849 9.55808H15.9615C16.333 9.55808 16.6352 9.86027 16.6352 10.2318C16.6352 10.6032 16.333 10.9054 15.9615 10.9054H12.7854C12.1878 10.9054 11.885 11.6311 12.3089 12.0553Z" />
    </g>
</svg>