<svg width="213px" height="42px" viewBox="0 0 213 42" fill="none" xmlns="http://www.w3.org/2000/svg">
    <path fill-rule="evenodd" clip-rule="evenodd" d="M197.227 35.8099H204.563V29.4971H197.227V23.3062H204.442C204.686 18.2074 201.507 17.6003 197.227 17.6003V11.1677H200.162C203.708 11.1677 207.254 11.6537 209.943 14.3227C212.145 16.5074 213 19.6635 213 22.6977V41.9971H197.227V35.8099ZM189.89 32.6532C189.645 35.6881 191.97 35.8099 194.292 35.8099H197.227V42.0002H190.871C184.512 42.0002 180.966 38.3584 181.333 32.1658C181.822 24.7615 187.202 23.3048 193.683 23.3048H197.227V29.4958H194.905C192.459 29.4958 190.013 29.7391 189.89 32.6508V32.6532ZM197.227 11.1677V17.6013H183.409V11.1677H197.227ZM148.073 42.0002V11.1677H163.479C171.671 11.1677 176.441 13.7165 176.441 22.4567V42.0002H168.248V23.0639C168.248 18.6921 167.272 17.6013 162.869 17.6013H156.266V42.0002H148.073ZM142.571 7.64946H133.89V0.00183868H142.571V7.64946ZM142.571 42.0018H133.89V11.1677H142.571V42.0018ZM94.1504 42.0018V22.7024C94.1504 6.55795 97.4519 0.00351598 114.814 0.00351598H128.388V7.4078H114.081C106.622 7.4078 103.443 10.0785 103.076 17.6046H128.388V24.8881H103.076V42.0059H94.1508L94.1504 42.0018Z" fill="currentColor"/>
    <path d="M0 17.6059H1.58905V41.9997H0V17.6059Z" fill="currentColor"/>
    <path d="M6.48078 17.6059H8.43666V41.9997H6.48078V17.6059Z" fill="currentColor"/>
    <path d="M13.3272 17.6059H15.8967V41.9997H13.3272V17.6059Z" fill="currentColor"/>
    <path d="M20.7861 17.6059H24.2093V41.9997H20.7861V17.6059Z" fill="currentColor"/>
    <path d="M29.1008 17.6059H33.5024V41.9997H29.1008V17.6059Z" fill="currentColor"/>
    <path d="M38.3939 17.6059H44.1395V41.9997H38.3939V17.6059Z" fill="currentColor"/>
    <path d="M48.909 17.6059H56.4908V41.9997H48.909V17.6059Z" fill="currentColor"/>
    <path d="M61.3801 17.6059H71.1626V41.9997H61.3801V17.6059Z" fill="currentColor"/>
    <path d="M75.9318 17.6059H88.6482V41.9997H75.9318V17.6059Z" fill="currentColor"/>
</svg>
